<?xml version="1.0" encoding="utf-8"?>
<svg xmlns="http://www.w3.org/2000/svg"
    xmlns:xlink="http://www.w3.org/1999/xlink"
    width="853" height="520" viewBox="-10 -10 853 520">
<defs>
<style type="text/css"><![CDATA[
line {
    stroke: #000000;
    stroke-linecap: square;
    stroke-width: 5;
}
]]></style>
</defs>
<line x1="83.3" y1="0.0" x2="83.3" y2="83.33333333333333"/>
<line x1="83.3" y1="83.33333333333333" x2="83.3" y2="166.66666666666666"/>
<line x1="83.3" y1="166.66666666666666" x2="83.3" y2="250.0"/>
<line x1="83.3" y1="250.0" x2="83.3" y2="333.3333333333333"/>
<line x1="0.0" y1="416.66666666666663" x2="83.3" y2="416.66666666666663"/>
<line x1="0.0" y1="500.0" x2="83.3" y2="500.0"/>
<line x1="166.6" y1="0.0" x2="166.6" y2="83.33333333333333"/>
<line x1="83.3" y1="166.66666666666666" x2="166.6" y2="166.66666666666666"/>
<line x1="166.6" y1="250.0" x2="166.6" y2="333.3333333333333"/>
<line x1="83.3" y1="416.66666666666663" x2="166.6" y2="416.66666666666663"/>
<line x1="166.6" y1="333.3333333333333" x2="166.6" y2="416.66666666666663"/>
<line x1="83.3" y1="500.0" x2="166.6" y2="500.0"/>
<line x1="166.6" y1="166.66666666666666" x2="249.89999999999998" y2="166.66666666666666"/>
<line x1="249.89999999999998" y1="83.33333333333333" x2="249.89999999999998" y2="166.66666666666666"/>
<line x1="249.89999999999998" y1="166.66666666666666" x2="249.89999999999998" y2="250.0"/>
<line x1="249.89999999999998" y1="250.0" x2="249.89999999999998" y2="333.3333333333333"/>
<line x1="249.89999999999998" y1="333.3333333333333" x2="249.89999999999998" y2="416.66666666666663"/>
<line x1="166.6" y1="500.0" x2="249.89999999999998" y2="500.0"/>
<line x1="249.89999999999998" y1="166.66666666666666" x2="333.2" y2="166.66666666666666"/>
<line x1="333.2" y1="250.0" x2="333.2" y2="333.3333333333333"/>
<line x1="333.2" y1="333.3333333333333" x2="333.2" y2="416.66666666666663"/>
<line x1="249.89999999999998" y1="500.0" x2="333.2" y2="500.0"/>
<line x1="333.2" y1="416.66666666666663" x2="333.2" y2="500.0"/>
<line x1="333.2" y1="83.33333333333333" x2="416.5" y2="83.33333333333333"/>
<line x1="333.2" y1="166.66666666666666" x2="416.5" y2="166.66666666666666"/>
<line x1="416.5" y1="166.66666666666666" x2="416.5" y2="250.0"/>
<line x1="416.5" y1="250.0" x2="416.5" y2="333.3333333333333"/>
<line x1="333.2" y1="416.66666666666663" x2="416.5" y2="416.66666666666663"/>
<line x1="333.2" y1="500.0" x2="416.5" y2="500.0"/>
<line x1="416.5" y1="83.33333333333333" x2="499.79999999999995" y2="83.33333333333333"/>
<line x1="499.79999999999995" y1="83.33333333333333" x2="499.79999999999995" y2="166.66666666666666"/>
<line x1="416.5" y1="333.3333333333333" x2="499.79999999999995" y2="333.3333333333333"/>
<line x1="499.79999999999995" y1="250.0" x2="499.79999999999995" y2="333.3333333333333"/>
<line x1="499.79999999999995" y1="333.3333333333333" x2="499.79999999999995" y2="416.66666666666663"/>
<line x1="416.5" y1="500.0" x2="499.79999999999995" y2="500.0"/>
<line x1="583.1" y1="0.0" x2="583.1" y2="83.33333333333333"/>
<line x1="499.79999999999995" y1="166.66666666666666" x2="583.1" y2="166.66666666666666"/>
<line x1="583.1" y1="166.66666666666666" x2="583.1" y2="250.0"/>
<line x1="583.1" y1="250.0" x2="583.1" y2="333.3333333333333"/>
<line x1="583.1" y1="333.3333333333333" x2="583.1" y2="416.66666666666663"/>
<line x1="499.79999999999995" y1="500.0" x2="583.1" y2="500.0"/>
<line x1="583.1" y1="416.66666666666663" x2="583.1" y2="500.0"/>
<line x1="583.1" y1="83.33333333333333" x2="666.4" y2="83.33333333333333"/>
<line x1="583.1" y1="166.66666666666666" x2="666.4" y2="166.66666666666666"/>
<line x1="583.1" y1="333.3333333333333" x2="666.4" y2="333.3333333333333"/>
<line x1="583.1" y1="500.0" x2="666.4" y2="500.0"/>
<line x1="666.4" y1="166.66666666666666" x2="749.6999999999999" y2="166.66666666666666"/>
<line x1="749.6999999999999" y1="83.33333333333333" x2="749.6999999999999" y2="166.66666666666666"/>
<line x1="666.4" y1="250.0" x2="749.6999999999999" y2="250.0"/>
<line x1="749.6999999999999" y1="250.0" x2="749.6999999999999" y2="333.3333333333333"/>
<line x1="666.4" y1="416.66666666666663" x2="749.6999999999999" y2="416.66666666666663"/>
<line x1="749.6999999999999" y1="333.3333333333333" x2="749.6999999999999" y2="416.66666666666663"/>
<line x1="666.4" y1="500.0" x2="749.6999999999999" y2="500.0"/>
<line x1="833.0" y1="0.0" x2="833.0" y2="83.33333333333333"/>
<line x1="833.0" y1="83.33333333333333" x2="833.0" y2="166.66666666666666"/>
<line x1="749.6999999999999" y1="250.0" x2="833.0" y2="250.0"/>
<line x1="833.0" y1="166.66666666666666" x2="833.0" y2="250.0"/>
<line x1="833.0" y1="250.0" x2="833.0" y2="333.3333333333333"/>
<line x1="833.0" y1="333.3333333333333" x2="833.0" y2="416.66666666666663"/>
<line x1="749.6999999999999" y1="500.0" x2="833.0" y2="500.0"/>
<line x1="833.0" y1="416.66666666666663" x2="833.0" y2="500.0"/>
<line x1="0" y1="0" x2="833" y2="0"/>
<line x1="0" y1="0" x2="0" y2="500"/>
</svg>
